<svg xmlns="http://www.w3.org/2000/svg" xml:space="preserve" viewBox="0 0 2000 2000"><ellipse cx="1039.6" cy="816.8" rx="835.4" ry="691.8" style="fill:#54dbbc"/><path d="M791.2 1773c101-35.9 192.1-87.8 275-154.7 6.8-5.5 12.7-12.3 19.9-17.1 19.4-13.1 39-12.4 54.8 5.6 15.8 18.1 13.3 38-1.1 56.2-4.2 5.3-9.3 10.1-14.7 14.1-102.8 75.2-208.3 146.3-330.3 184.3-40.4 12.6-85.2 11.7-128.2 13.5-24.1 1.1-46.2-9.5-53.2-36.8-7.3-28.1 6.8-47 29-61.4 18.7-12.1 37.3-24.4 55.7-37 48.2-32.9 73.4-81.2 88.8-137.2-3.7-1.7-6.2-4-8.4-3.8-137.5 13.7-252.5-45.5-359.3-122.4-171.6-123.3-259.1-297.9-286.1-508.1-12.7-98.7-9.9-196.6 7.3-293.6 21.2-119.1 96.7-205 185.7-275.8C448.2 301.6 586.2 231.6 739 202.6c161.1-30.5 322.7-24.4 478.8 32.5 85 31 173.2 58.8 250.4 104.9 78 46.5 155 104.3 213 174 85.8 103 146.6 223.6 143.8 366.9-1.6 81.5 1.6 162.6-18.3 243.2-41.3 166.7-148.5 274.4-289.1 357.5-83.5 49.3-173.5 74.1-266.1 93.3-26.3 5.5-48.1-8.8-54-32.3-6.4-25.6 8.4-51.5 36.1-58 18.6-4.4 38.2-3.6 57.3-6.2 105.3-14.1 190.1-72.8 273.1-133.8 122.4-89.9 171.3-217.8 176.8-366.9.7-18.6.2-37.4.4-56.1 2.4-157.5-52.3-289.2-169.4-393.1C1336 319.3 1060.7 233.3 755 284.8c-194.1 32.7-366.3 125.4-488.4 294.1-33.1 45.6-50.6 96.2-56.8 152.3-17.2 156.8-2.1 309.2 67.7 451.3 87.2 177.6 228.4 288.7 419.2 329.6 31.7 6.8 67.1 1 100-4.1 68-10.4 99.5 26.8 76.7 93.2-20.9 60.6-38.3 122.3-82.2 171.8" style="fill:#fff"/></svg>